<mxfile host="Electron" modified="2023-09-24T20:53:58.744Z" agent="Mozilla/5.0 (Macintosh; Intel Mac OS X 10_15_7) AppleWebKit/537.36 (KHTML, like Gecko) draw.io/21.6.8 Chrome/114.0.5735.289 Electron/25.5.0 Safari/537.36" etag="G30BTLvzUXU2dX4MvXIK" version="21.6.8" type="device">
  <diagram name="Seite-1" id="B1Vo-pQsGhyxS1111mmg">
    <mxGraphModel dx="1572" dy="1152" grid="1" gridSize="10" guides="1" tooltips="1" connect="1" arrows="1" fold="1" page="1" pageScale="1" pageWidth="1654" pageHeight="1169" math="0" shadow="0">
      <root>
        <mxCell id="0" />
        <mxCell id="1" parent="0" />
        <mxCell id="HDQULCZkPuNCGO_k63nz-51" value="" style="group" vertex="1" connectable="0" parent="1">
          <mxGeometry x="610" y="230" width="400" height="207" as="geometry" />
        </mxCell>
        <mxCell id="HDQULCZkPuNCGO_k63nz-33" value="Group" style="rounded=0;whiteSpace=wrap;html=1;sketch=1;hachureGap=4;jiggle=2;curveFitting=1;fontFamily=Architects Daughter;fontSource=https://fonts.googleapis.com/css?family=Architects+Daughter;fontSize=28;fillColor=none;strokeColor=#9673a6;strokeWidth=5;verticalAlign=top;" vertex="1" parent="HDQULCZkPuNCGO_k63nz-51">
          <mxGeometry width="400" height="207" as="geometry" />
        </mxCell>
        <mxCell id="HDQULCZkPuNCGO_k63nz-18" value="r" style="rounded=0;whiteSpace=wrap;html=1;sketch=1;hachureGap=4;jiggle=2;curveFitting=1;fontFamily=Architects Daughter;fontSource=https://fonts.googleapis.com/css?family=Architects+Daughter;fontSize=28;fillColor=#f8cecc;strokeColor=#b85450;fontStyle=1" vertex="1" parent="HDQULCZkPuNCGO_k63nz-51">
          <mxGeometry x="10" y="50" width="60" height="50" as="geometry" />
        </mxCell>
        <mxCell id="HDQULCZkPuNCGO_k63nz-19" value="-" style="rounded=0;whiteSpace=wrap;html=1;sketch=1;hachureGap=4;jiggle=2;curveFitting=1;fontFamily=Architects Daughter;fontSource=https://fonts.googleapis.com/css?family=Architects+Daughter;fontSize=28;fillColor=#fff2cc;strokeColor=#d6b656;fontStyle=1" vertex="1" parent="HDQULCZkPuNCGO_k63nz-51">
          <mxGeometry x="100" y="50" width="60" height="50" as="geometry" />
        </mxCell>
        <mxCell id="HDQULCZkPuNCGO_k63nz-20" value="x" style="rounded=0;whiteSpace=wrap;html=1;sketch=1;hachureGap=4;jiggle=2;curveFitting=1;fontFamily=Architects Daughter;fontSource=https://fonts.googleapis.com/css?family=Architects+Daughter;fontSize=28;fillColor=#dae8fc;strokeColor=#6c8ebf;fontStyle=1" vertex="1" parent="HDQULCZkPuNCGO_k63nz-51">
          <mxGeometry x="190" y="50" width="60" height="50" as="geometry" />
        </mxCell>
        <mxCell id="HDQULCZkPuNCGO_k63nz-21" value="" style="shape=flexArrow;endArrow=classic;html=1;rounded=0;sketch=1;hachureGap=4;jiggle=2;curveFitting=1;fontFamily=Architects Daughter;fontSource=https://fonts.googleapis.com/css?family=Architects+Daughter;fontSize=16;endWidth=17;endSize=6.03;" edge="1" parent="HDQULCZkPuNCGO_k63nz-51" source="HDQULCZkPuNCGO_k63nz-18" target="HDQULCZkPuNCGO_k63nz-22">
          <mxGeometry width="50" height="50" relative="1" as="geometry">
            <mxPoint x="460" y="160" as="sourcePoint" />
            <mxPoint x="510" y="110" as="targetPoint" />
          </mxGeometry>
        </mxCell>
        <mxCell id="HDQULCZkPuNCGO_k63nz-22" value="4" style="rounded=0;whiteSpace=wrap;html=1;sketch=1;hachureGap=4;jiggle=2;curveFitting=1;fontFamily=Architects Daughter;fontSource=https://fonts.googleapis.com/css?family=Architects+Daughter;fontSize=28;fillColor=#f8cecc;strokeColor=#b85450;fontStyle=1" vertex="1" parent="HDQULCZkPuNCGO_k63nz-51">
          <mxGeometry x="10" y="140" width="60" height="50" as="geometry" />
        </mxCell>
        <mxCell id="HDQULCZkPuNCGO_k63nz-23" value="0" style="rounded=0;whiteSpace=wrap;html=1;sketch=1;hachureGap=4;jiggle=2;curveFitting=1;fontFamily=Architects Daughter;fontSource=https://fonts.googleapis.com/css?family=Architects+Daughter;fontSize=28;fillColor=#fff2cc;strokeColor=#d6b656;fontStyle=1" vertex="1" parent="HDQULCZkPuNCGO_k63nz-51">
          <mxGeometry x="100" y="140" width="60" height="50" as="geometry" />
        </mxCell>
        <mxCell id="HDQULCZkPuNCGO_k63nz-24" value="1" style="rounded=0;whiteSpace=wrap;html=1;sketch=1;hachureGap=4;jiggle=2;curveFitting=1;fontFamily=Architects Daughter;fontSource=https://fonts.googleapis.com/css?family=Architects+Daughter;fontSize=28;fillColor=#dae8fc;strokeColor=#6c8ebf;fontStyle=1" vertex="1" parent="HDQULCZkPuNCGO_k63nz-51">
          <mxGeometry x="190" y="140" width="60" height="50" as="geometry" />
        </mxCell>
        <mxCell id="HDQULCZkPuNCGO_k63nz-25" value="" style="shape=flexArrow;endArrow=classic;html=1;rounded=0;sketch=1;hachureGap=4;jiggle=2;curveFitting=1;fontFamily=Architects Daughter;fontSource=https://fonts.googleapis.com/css?family=Architects+Daughter;fontSize=16;endWidth=17;endSize=6.03;" edge="1" parent="HDQULCZkPuNCGO_k63nz-51" source="HDQULCZkPuNCGO_k63nz-19" target="HDQULCZkPuNCGO_k63nz-23">
          <mxGeometry width="50" height="50" relative="1" as="geometry">
            <mxPoint x="130" y="100" as="sourcePoint" />
            <mxPoint x="130" y="170" as="targetPoint" />
          </mxGeometry>
        </mxCell>
        <mxCell id="HDQULCZkPuNCGO_k63nz-26" value="" style="shape=flexArrow;endArrow=classic;html=1;rounded=0;sketch=1;hachureGap=4;jiggle=2;curveFitting=1;fontFamily=Architects Daughter;fontSource=https://fonts.googleapis.com/css?family=Architects+Daughter;fontSize=16;endWidth=17;endSize=6.03;" edge="1" parent="HDQULCZkPuNCGO_k63nz-51" source="HDQULCZkPuNCGO_k63nz-20" target="HDQULCZkPuNCGO_k63nz-24">
          <mxGeometry width="50" height="50" relative="1" as="geometry">
            <mxPoint x="140" y="110" as="sourcePoint" />
            <mxPoint x="140" y="180" as="targetPoint" />
          </mxGeometry>
        </mxCell>
        <mxCell id="HDQULCZkPuNCGO_k63nz-27" value="+" style="text;html=1;strokeColor=none;fillColor=none;align=center;verticalAlign=middle;whiteSpace=wrap;rounded=0;fontSize=28;fontFamily=Architects Daughter;fontStyle=1" vertex="1" parent="HDQULCZkPuNCGO_k63nz-51">
          <mxGeometry x="70" y="150" width="30" height="30" as="geometry" />
        </mxCell>
        <mxCell id="HDQULCZkPuNCGO_k63nz-28" value="+" style="text;html=1;strokeColor=none;fillColor=none;align=center;verticalAlign=middle;whiteSpace=wrap;rounded=0;fontSize=28;fontFamily=Architects Daughter;fontStyle=1" vertex="1" parent="HDQULCZkPuNCGO_k63nz-51">
          <mxGeometry x="160" y="150" width="30" height="30" as="geometry" />
        </mxCell>
        <mxCell id="HDQULCZkPuNCGO_k63nz-29" value="=" style="text;html=1;strokeColor=none;fillColor=none;align=center;verticalAlign=middle;whiteSpace=wrap;rounded=0;fontSize=28;fontFamily=Architects Daughter;fontStyle=1" vertex="1" parent="HDQULCZkPuNCGO_k63nz-51">
          <mxGeometry x="250" y="60" width="30" height="30" as="geometry" />
        </mxCell>
        <mxCell id="HDQULCZkPuNCGO_k63nz-30" value="=" style="text;html=1;strokeColor=none;fillColor=none;align=center;verticalAlign=middle;whiteSpace=wrap;rounded=0;fontSize=28;fontFamily=Architects Daughter;fontStyle=1" vertex="1" parent="HDQULCZkPuNCGO_k63nz-51">
          <mxGeometry x="250" y="150" width="30" height="30" as="geometry" />
        </mxCell>
        <mxCell id="HDQULCZkPuNCGO_k63nz-31" value="r-x" style="rounded=0;whiteSpace=wrap;html=1;sketch=1;hachureGap=4;jiggle=2;curveFitting=1;fontFamily=Architects Daughter;fontSource=https://fonts.googleapis.com/css?family=Architects+Daughter;fontSize=28;fillColor=#e1d5e7;strokeColor=#9673a6;" vertex="1" parent="HDQULCZkPuNCGO_k63nz-51">
          <mxGeometry x="280" y="50" width="100" height="50" as="geometry" />
        </mxCell>
        <mxCell id="HDQULCZkPuNCGO_k63nz-32" value="5" style="rounded=0;whiteSpace=wrap;html=1;sketch=1;hachureGap=4;jiggle=2;curveFitting=1;fontFamily=Architects Daughter;fontSource=https://fonts.googleapis.com/css?family=Architects+Daughter;fontSize=28;fillColor=#e1d5e7;strokeColor=#9673a6;" vertex="1" parent="HDQULCZkPuNCGO_k63nz-51">
          <mxGeometry x="280" y="140" width="100" height="50" as="geometry" />
        </mxCell>
        <mxCell id="HDQULCZkPuNCGO_k63nz-52" value="" style="group" vertex="1" connectable="0" parent="1">
          <mxGeometry x="180" y="230" width="410" height="207" as="geometry" />
        </mxCell>
        <mxCell id="HDQULCZkPuNCGO_k63nz-16" value="User" style="rounded=0;whiteSpace=wrap;html=1;sketch=1;hachureGap=4;jiggle=2;curveFitting=1;fontFamily=Architects Daughter;fontSource=https%3A%2F%2Ffonts.googleapis.com%2Fcss%3Ffamily%3DArchitects%2BDaughter;fontSize=28;fillColor=none;strokeColor=#9673a6;strokeWidth=5;verticalAlign=top;" vertex="1" parent="HDQULCZkPuNCGO_k63nz-52">
          <mxGeometry width="410" height="207" as="geometry" />
        </mxCell>
        <mxCell id="HDQULCZkPuNCGO_k63nz-1" value="r" style="rounded=0;whiteSpace=wrap;html=1;sketch=1;hachureGap=4;jiggle=2;curveFitting=1;fontFamily=Architects Daughter;fontSource=https%3A%2F%2Ffonts.googleapis.com%2Fcss%3Ffamily%3DArchitects%2BDaughter;fontSize=28;fillColor=#f8cecc;strokeColor=#b85450;fontStyle=1" vertex="1" parent="HDQULCZkPuNCGO_k63nz-52">
          <mxGeometry x="10" y="50" width="60" height="50" as="geometry" />
        </mxCell>
        <mxCell id="HDQULCZkPuNCGO_k63nz-2" value="w" style="rounded=0;whiteSpace=wrap;html=1;sketch=1;hachureGap=4;jiggle=2;curveFitting=1;fontFamily=Architects Daughter;fontSource=https%3A%2F%2Ffonts.googleapis.com%2Fcss%3Ffamily%3DArchitects%2BDaughter;fontSize=28;fillColor=#fff2cc;strokeColor=#d6b656;fontStyle=1" vertex="1" parent="HDQULCZkPuNCGO_k63nz-52">
          <mxGeometry x="100" y="50" width="60" height="50" as="geometry" />
        </mxCell>
        <mxCell id="HDQULCZkPuNCGO_k63nz-3" value="x" style="rounded=0;whiteSpace=wrap;html=1;sketch=1;hachureGap=4;jiggle=2;curveFitting=1;fontFamily=Architects Daughter;fontSource=https%3A%2F%2Ffonts.googleapis.com%2Fcss%3Ffamily%3DArchitects%2BDaughter;fontSize=28;fillColor=#dae8fc;strokeColor=#6c8ebf;fontStyle=1" vertex="1" parent="HDQULCZkPuNCGO_k63nz-52">
          <mxGeometry x="200" y="50" width="60" height="50" as="geometry" />
        </mxCell>
        <mxCell id="HDQULCZkPuNCGO_k63nz-4" value="" style="shape=flexArrow;endArrow=classic;html=1;rounded=0;sketch=1;hachureGap=4;jiggle=2;curveFitting=1;fontFamily=Architects Daughter;fontSource=https%3A%2F%2Ffonts.googleapis.com%2Fcss%3Ffamily%3DArchitects%2BDaughter;fontSize=16;endWidth=17;endSize=6.03;" edge="1" parent="HDQULCZkPuNCGO_k63nz-52" source="HDQULCZkPuNCGO_k63nz-1" target="HDQULCZkPuNCGO_k63nz-5">
          <mxGeometry width="50" height="50" relative="1" as="geometry">
            <mxPoint x="390" y="160" as="sourcePoint" />
            <mxPoint x="440" y="110" as="targetPoint" />
          </mxGeometry>
        </mxCell>
        <mxCell id="HDQULCZkPuNCGO_k63nz-5" value="4" style="rounded=0;whiteSpace=wrap;html=1;sketch=1;hachureGap=4;jiggle=2;curveFitting=1;fontFamily=Architects Daughter;fontSource=https%3A%2F%2Ffonts.googleapis.com%2Fcss%3Ffamily%3DArchitects%2BDaughter;fontSize=28;fillColor=#f8cecc;strokeColor=#b85450;fontStyle=1" vertex="1" parent="HDQULCZkPuNCGO_k63nz-52">
          <mxGeometry x="10" y="137" width="60" height="50" as="geometry" />
        </mxCell>
        <mxCell id="HDQULCZkPuNCGO_k63nz-6" value="2" style="rounded=0;whiteSpace=wrap;html=1;sketch=1;hachureGap=4;jiggle=2;curveFitting=1;fontFamily=Architects Daughter;fontSource=https%3A%2F%2Ffonts.googleapis.com%2Fcss%3Ffamily%3DArchitects%2BDaughter;fontSize=28;fillColor=#fff2cc;strokeColor=#d6b656;fontStyle=1" vertex="1" parent="HDQULCZkPuNCGO_k63nz-52">
          <mxGeometry x="100" y="137" width="60" height="50" as="geometry" />
        </mxCell>
        <mxCell id="HDQULCZkPuNCGO_k63nz-7" value="1" style="rounded=0;whiteSpace=wrap;html=1;sketch=1;hachureGap=4;jiggle=2;curveFitting=1;fontFamily=Architects Daughter;fontSource=https%3A%2F%2Ffonts.googleapis.com%2Fcss%3Ffamily%3DArchitects%2BDaughter;fontSize=28;fillColor=#dae8fc;strokeColor=#6c8ebf;fontStyle=1" vertex="1" parent="HDQULCZkPuNCGO_k63nz-52">
          <mxGeometry x="200" y="137" width="60" height="50" as="geometry" />
        </mxCell>
        <mxCell id="HDQULCZkPuNCGO_k63nz-8" value="" style="shape=flexArrow;endArrow=classic;html=1;rounded=0;sketch=1;hachureGap=4;jiggle=2;curveFitting=1;fontFamily=Architects Daughter;fontSource=https%3A%2F%2Ffonts.googleapis.com%2Fcss%3Ffamily%3DArchitects%2BDaughter;fontSize=16;endWidth=17;endSize=6.03;" edge="1" parent="HDQULCZkPuNCGO_k63nz-52" source="HDQULCZkPuNCGO_k63nz-2" target="HDQULCZkPuNCGO_k63nz-6">
          <mxGeometry width="50" height="50" relative="1" as="geometry">
            <mxPoint x="50" y="100" as="sourcePoint" />
            <mxPoint x="50" y="170" as="targetPoint" />
          </mxGeometry>
        </mxCell>
        <mxCell id="HDQULCZkPuNCGO_k63nz-9" value="" style="shape=flexArrow;endArrow=classic;html=1;rounded=0;sketch=1;hachureGap=4;jiggle=2;curveFitting=1;fontFamily=Architects Daughter;fontSource=https%3A%2F%2Ffonts.googleapis.com%2Fcss%3Ffamily%3DArchitects%2BDaughter;fontSize=16;endWidth=17;endSize=6.03;" edge="1" parent="HDQULCZkPuNCGO_k63nz-52" source="HDQULCZkPuNCGO_k63nz-3" target="HDQULCZkPuNCGO_k63nz-7">
          <mxGeometry width="50" height="50" relative="1" as="geometry">
            <mxPoint x="60" y="110" as="sourcePoint" />
            <mxPoint x="60" y="180" as="targetPoint" />
          </mxGeometry>
        </mxCell>
        <mxCell id="HDQULCZkPuNCGO_k63nz-10" value="+" style="text;html=1;strokeColor=none;fillColor=none;align=center;verticalAlign=middle;whiteSpace=wrap;rounded=0;fontSize=28;fontFamily=Architects Daughter;fontStyle=1" vertex="1" parent="HDQULCZkPuNCGO_k63nz-52">
          <mxGeometry x="70" y="147" width="30" height="30" as="geometry" />
        </mxCell>
        <mxCell id="HDQULCZkPuNCGO_k63nz-11" value="+" style="text;html=1;strokeColor=none;fillColor=none;align=center;verticalAlign=middle;whiteSpace=wrap;rounded=0;fontSize=28;fontFamily=Architects Daughter;fontStyle=1" vertex="1" parent="HDQULCZkPuNCGO_k63nz-52">
          <mxGeometry x="170" y="147" width="30" height="30" as="geometry" />
        </mxCell>
        <mxCell id="HDQULCZkPuNCGO_k63nz-12" value="=" style="text;html=1;strokeColor=none;fillColor=none;align=center;verticalAlign=middle;whiteSpace=wrap;rounded=0;fontSize=28;fontFamily=Architects Daughter;fontStyle=1" vertex="1" parent="HDQULCZkPuNCGO_k63nz-52">
          <mxGeometry x="270" y="60" width="30" height="30" as="geometry" />
        </mxCell>
        <mxCell id="HDQULCZkPuNCGO_k63nz-13" value="=" style="text;html=1;strokeColor=none;fillColor=none;align=center;verticalAlign=middle;whiteSpace=wrap;rounded=0;fontSize=28;fontFamily=Architects Daughter;fontStyle=1" vertex="1" parent="HDQULCZkPuNCGO_k63nz-52">
          <mxGeometry x="270" y="147" width="30" height="30" as="geometry" />
        </mxCell>
        <mxCell id="HDQULCZkPuNCGO_k63nz-14" value="rwx" style="rounded=0;whiteSpace=wrap;html=1;sketch=1;hachureGap=4;jiggle=2;curveFitting=1;fontFamily=Architects Daughter;fontSource=https%3A%2F%2Ffonts.googleapis.com%2Fcss%3Ffamily%3DArchitects%2BDaughter;fontSize=28;fillColor=#e1d5e7;strokeColor=#9673a6;" vertex="1" parent="HDQULCZkPuNCGO_k63nz-52">
          <mxGeometry x="300" y="50" width="100" height="50" as="geometry" />
        </mxCell>
        <mxCell id="HDQULCZkPuNCGO_k63nz-15" value="7" style="rounded=0;whiteSpace=wrap;html=1;sketch=1;hachureGap=4;jiggle=2;curveFitting=1;fontFamily=Architects Daughter;fontSource=https%3A%2F%2Ffonts.googleapis.com%2Fcss%3Ffamily%3DArchitects%2BDaughter;fontSize=28;fillColor=#e1d5e7;strokeColor=#9673a6;" vertex="1" parent="HDQULCZkPuNCGO_k63nz-52">
          <mxGeometry x="300" y="140" width="100" height="50" as="geometry" />
        </mxCell>
        <mxCell id="HDQULCZkPuNCGO_k63nz-53" value="" style="group" vertex="1" connectable="0" parent="1">
          <mxGeometry x="1030" y="230" width="410" height="207" as="geometry" />
        </mxCell>
        <mxCell id="HDQULCZkPuNCGO_k63nz-34" value="Other" style="rounded=0;whiteSpace=wrap;html=1;sketch=1;hachureGap=4;jiggle=2;curveFitting=1;fontFamily=Architects Daughter;fontSource=https://fonts.googleapis.com/css?family=Architects+Daughter;fontSize=28;fillColor=none;strokeColor=#9673a6;strokeWidth=5;verticalAlign=top;" vertex="1" parent="HDQULCZkPuNCGO_k63nz-53">
          <mxGeometry width="410" height="207" as="geometry" />
        </mxCell>
        <mxCell id="HDQULCZkPuNCGO_k63nz-35" value="-" style="rounded=0;whiteSpace=wrap;html=1;sketch=1;hachureGap=4;jiggle=2;curveFitting=1;fontFamily=Architects Daughter;fontSource=https://fonts.googleapis.com/css?family=Architects+Daughter;fontSize=28;fillColor=#f8cecc;strokeColor=#b85450;fontStyle=1" vertex="1" parent="HDQULCZkPuNCGO_k63nz-53">
          <mxGeometry x="20" y="50" width="60" height="50" as="geometry" />
        </mxCell>
        <mxCell id="HDQULCZkPuNCGO_k63nz-36" value="-" style="rounded=0;whiteSpace=wrap;html=1;sketch=1;hachureGap=4;jiggle=2;curveFitting=1;fontFamily=Architects Daughter;fontSource=https://fonts.googleapis.com/css?family=Architects+Daughter;fontSize=28;fillColor=#fff2cc;strokeColor=#d6b656;fontStyle=1" vertex="1" parent="HDQULCZkPuNCGO_k63nz-53">
          <mxGeometry x="110" y="50" width="60" height="50" as="geometry" />
        </mxCell>
        <mxCell id="HDQULCZkPuNCGO_k63nz-37" value="-" style="rounded=0;whiteSpace=wrap;html=1;sketch=1;hachureGap=4;jiggle=2;curveFitting=1;fontFamily=Architects Daughter;fontSource=https://fonts.googleapis.com/css?family=Architects+Daughter;fontSize=28;fillColor=#dae8fc;strokeColor=#6c8ebf;fontStyle=1" vertex="1" parent="HDQULCZkPuNCGO_k63nz-53">
          <mxGeometry x="200" y="50" width="60" height="50" as="geometry" />
        </mxCell>
        <mxCell id="HDQULCZkPuNCGO_k63nz-38" value="" style="shape=flexArrow;endArrow=classic;html=1;rounded=0;sketch=1;hachureGap=4;jiggle=2;curveFitting=1;fontFamily=Architects Daughter;fontSource=https://fonts.googleapis.com/css?family=Architects+Daughter;fontSize=16;endWidth=17;endSize=6.03;" edge="1" parent="HDQULCZkPuNCGO_k63nz-53" source="HDQULCZkPuNCGO_k63nz-35" target="HDQULCZkPuNCGO_k63nz-39">
          <mxGeometry width="50" height="50" relative="1" as="geometry">
            <mxPoint x="670" y="160" as="sourcePoint" />
            <mxPoint x="720" y="110" as="targetPoint" />
          </mxGeometry>
        </mxCell>
        <mxCell id="HDQULCZkPuNCGO_k63nz-39" value="0" style="rounded=0;whiteSpace=wrap;html=1;sketch=1;hachureGap=4;jiggle=2;curveFitting=1;fontFamily=Architects Daughter;fontSource=https://fonts.googleapis.com/css?family=Architects+Daughter;fontSize=28;fillColor=#f8cecc;strokeColor=#b85450;fontStyle=1" vertex="1" parent="HDQULCZkPuNCGO_k63nz-53">
          <mxGeometry x="20" y="140" width="60" height="50" as="geometry" />
        </mxCell>
        <mxCell id="HDQULCZkPuNCGO_k63nz-40" value="0" style="rounded=0;whiteSpace=wrap;html=1;sketch=1;hachureGap=4;jiggle=2;curveFitting=1;fontFamily=Architects Daughter;fontSource=https://fonts.googleapis.com/css?family=Architects+Daughter;fontSize=28;fillColor=#fff2cc;strokeColor=#d6b656;fontStyle=1" vertex="1" parent="HDQULCZkPuNCGO_k63nz-53">
          <mxGeometry x="110" y="140" width="60" height="50" as="geometry" />
        </mxCell>
        <mxCell id="HDQULCZkPuNCGO_k63nz-41" value="0" style="rounded=0;whiteSpace=wrap;html=1;sketch=1;hachureGap=4;jiggle=2;curveFitting=1;fontFamily=Architects Daughter;fontSource=https://fonts.googleapis.com/css?family=Architects+Daughter;fontSize=28;fillColor=#dae8fc;strokeColor=#6c8ebf;fontStyle=1" vertex="1" parent="HDQULCZkPuNCGO_k63nz-53">
          <mxGeometry x="200" y="140" width="60" height="50" as="geometry" />
        </mxCell>
        <mxCell id="HDQULCZkPuNCGO_k63nz-42" value="" style="shape=flexArrow;endArrow=classic;html=1;rounded=0;sketch=1;hachureGap=4;jiggle=2;curveFitting=1;fontFamily=Architects Daughter;fontSource=https://fonts.googleapis.com/css?family=Architects+Daughter;fontSize=16;endWidth=17;endSize=6.03;" edge="1" parent="HDQULCZkPuNCGO_k63nz-53" source="HDQULCZkPuNCGO_k63nz-36" target="HDQULCZkPuNCGO_k63nz-40">
          <mxGeometry width="50" height="50" relative="1" as="geometry">
            <mxPoint x="340" y="100" as="sourcePoint" />
            <mxPoint x="340" y="170" as="targetPoint" />
          </mxGeometry>
        </mxCell>
        <mxCell id="HDQULCZkPuNCGO_k63nz-43" value="" style="shape=flexArrow;endArrow=classic;html=1;rounded=0;sketch=1;hachureGap=4;jiggle=2;curveFitting=1;fontFamily=Architects Daughter;fontSource=https://fonts.googleapis.com/css?family=Architects+Daughter;fontSize=16;endWidth=17;endSize=6.03;" edge="1" parent="HDQULCZkPuNCGO_k63nz-53" source="HDQULCZkPuNCGO_k63nz-37" target="HDQULCZkPuNCGO_k63nz-41">
          <mxGeometry width="50" height="50" relative="1" as="geometry">
            <mxPoint x="350" y="110" as="sourcePoint" />
            <mxPoint x="350" y="180" as="targetPoint" />
          </mxGeometry>
        </mxCell>
        <mxCell id="HDQULCZkPuNCGO_k63nz-44" value="+" style="text;html=1;strokeColor=none;fillColor=none;align=center;verticalAlign=middle;whiteSpace=wrap;rounded=0;fontSize=28;fontFamily=Architects Daughter;fontStyle=1" vertex="1" parent="HDQULCZkPuNCGO_k63nz-53">
          <mxGeometry x="80" y="150" width="30" height="30" as="geometry" />
        </mxCell>
        <mxCell id="HDQULCZkPuNCGO_k63nz-45" value="+" style="text;html=1;strokeColor=none;fillColor=none;align=center;verticalAlign=middle;whiteSpace=wrap;rounded=0;fontSize=28;fontFamily=Architects Daughter;fontStyle=1" vertex="1" parent="HDQULCZkPuNCGO_k63nz-53">
          <mxGeometry x="170" y="150" width="30" height="30" as="geometry" />
        </mxCell>
        <mxCell id="HDQULCZkPuNCGO_k63nz-46" value="=" style="text;html=1;strokeColor=none;fillColor=none;align=center;verticalAlign=middle;whiteSpace=wrap;rounded=0;fontSize=28;fontFamily=Architects Daughter;fontStyle=1" vertex="1" parent="HDQULCZkPuNCGO_k63nz-53">
          <mxGeometry x="260" y="60" width="30" height="30" as="geometry" />
        </mxCell>
        <mxCell id="HDQULCZkPuNCGO_k63nz-47" value="=" style="text;html=1;strokeColor=none;fillColor=none;align=center;verticalAlign=middle;whiteSpace=wrap;rounded=0;fontSize=28;fontFamily=Architects Daughter;fontStyle=1" vertex="1" parent="HDQULCZkPuNCGO_k63nz-53">
          <mxGeometry x="260" y="147" width="30" height="30" as="geometry" />
        </mxCell>
        <mxCell id="HDQULCZkPuNCGO_k63nz-48" value="---" style="rounded=0;whiteSpace=wrap;html=1;sketch=1;hachureGap=4;jiggle=2;curveFitting=1;fontFamily=Architects Daughter;fontSource=https://fonts.googleapis.com/css?family=Architects+Daughter;fontSize=28;fillColor=#e1d5e7;strokeColor=#9673a6;" vertex="1" parent="HDQULCZkPuNCGO_k63nz-53">
          <mxGeometry x="290" y="50" width="100" height="50" as="geometry" />
        </mxCell>
        <mxCell id="HDQULCZkPuNCGO_k63nz-49" value="0" style="rounded=0;whiteSpace=wrap;html=1;sketch=1;hachureGap=4;jiggle=2;curveFitting=1;fontFamily=Architects Daughter;fontSource=https://fonts.googleapis.com/css?family=Architects+Daughter;fontSize=28;fillColor=#e1d5e7;strokeColor=#9673a6;" vertex="1" parent="HDQULCZkPuNCGO_k63nz-53">
          <mxGeometry x="290" y="137" width="100" height="50" as="geometry" />
        </mxCell>
      </root>
    </mxGraphModel>
  </diagram>
</mxfile>
